<svg fill="#000" width="800" height="800" viewBox="144 144 512 512" xmlns="http://www.w3.org/2000/svg"><g><path d="m4e2 198.48c-111.14.0-201.52 90.383-201.52 201.52S288.863 601.52 4e2 601.52 601.52 511.137 601.52 4e2 511.137 198.48 4e2 198.48zm0 392.11c-105.09.0-190.59-85.496-190.59-190.59S294.906 209.41 4e2 209.41 590.59 294.906 590.59 4e2 505.094 590.59 4e2 590.59z"/><path d="m389.07 223.87h21.914v38.844H389.07z"/><path d="m307.2 250.22 9.4688-5.4648 19.418 33.641-9.4688 5.4648z"/><path d="m244.73 316.64 5.4648-9.4688 33.641 19.418-5.4648 9.4688z"/><path d="m223.87 389.07h38.844v21.914H223.87z"/><path d="m244.73 483.34 33.633-19.434 5.4688 9.4648-33.633 19.434z"/><path d="m307.19 549.8 19.418-33.641 9.4688 5.4648-19.418 33.641z"/><path d="m389.07 537.29h21.914v38.844H389.07z"/><path d="m463.91 521.63 9.4688-5.4648 19.418 33.641-9.4688 5.4648z"/><path d="m516.16 473.37 5.4648-9.4688 33.641 19.418-5.4648 9.4688z"/><path d="m537.29 389.07h38.844v21.914H537.29z"/><path d="m516.15 326.63 33.641-19.418 5.4648 9.4688-33.641 19.418z"/><path d="m463.91 278.37 19.434-33.633 9.4648 5.4688-19.434 33.633z"/><path d="m410.93 390.53c-1.5117-1.7617-3.3242-3.1758-5.4922-4.082l.003906-112.85h-10.934v112.9c-5.3398 2.168-9.168 7.4062-9.168 13.551.0 2.2656.60547 4.3828 1.5625 6.2969l-46.805 81.164 14.207 8.2109 46.855-81.215c7.5078-.65625 13.453-6.75 13.453-14.41.0-1.6641-.45312-3.2227-.95703-4.7344l98.746-57.031-2.7188-4.7344zM4e2 403.678c-2.0664.0-3.6797-1.6641-3.6797-3.6797.0-2.0664 1.6641-3.6797 3.6797-3.6797s3.6797 1.6641 3.6797 3.6797c-.003907 2.0664-1.6172 3.6797-3.6797 3.6797z"/></g></svg>