<svg fill="#000" width="800" height="800" viewBox="144 144 512 512" xmlns="http://www.w3.org/2000/svg"><g><path d="m584.73 238.51h-42.758l-.003906-23.238c0-9.2734-7.5195-16.793-16.793-16.793-9.2734.0-16.793 7.5195-16.793 16.793v23.238h-91.59v-23.238c0-9.2734-7.5195-16.793-16.793-16.793s-16.793 7.5195-16.793 16.793v23.238h-91.594v-23.238c0-9.2734-7.5195-16.793-16.793-16.793-9.2734.0-16.793 7.5195-16.793 16.793v23.238h-42.758c-9.2734.0-16.793 7.5195-16.793 16.793v329.43c0 9.2734 7.5195 16.793 16.793 16.793h369.46c9.2734.0 16.793-7.5195 16.793-16.793v-329.43c0-9.2734-7.5195-16.793-16.793-16.793zm-16.797 329.43h-335.87V272.1h25.965v24.977c0 9.2734 7.5195 16.793 16.793 16.793 9.2734.0 16.793-7.5195 16.793-16.793V272.1h91.59v24.977c0 9.2734 7.5195 16.793 16.793 16.793 9.2734.0 16.793-7.5195 16.793-16.793V272.1h91.59v24.977c0 9.2734 7.5195 16.793 16.793 16.793s16.793-7.5195 16.793-16.793V272.1h25.969z"/><path d="m351.05 472.99c10.105-9.2695 17.094-16.375 20.969-21.312 5.8516-7.4453 10.125-14.57 12.824-21.371 2.6953-6.8008 4.0469-13.961 4.0469-21.484.0-13.219-4.7109-24.277-14.133-33.164-9.4219-8.8906-22.375-13.336-38.867-13.336-15.043.0-27.582 3.8359-37.609 11.512-10.027 7.6719-15.996 20.324-17.895 37.953l31.914 3.1914c.60547-9.3477 2.8867-16.031 6.8398-20.059 3.9492-4.0273 9.2695-6.0391 15.957-6.0391 6.7617.0 12.062 1.918 15.898 5.7539 3.8359 3.8359 5.7578 9.3281 5.7578 16.469.0 6.4609-2.2031 12.992-6.6094 19.605-3.2656 4.7852-12.117 13.906-26.555 27.352-17.93 16.641-29.938 29.996-36.016 40.062-6.0781 10.066-9.7266 20.723-10.941 31.969h112.27v-29.746h-63.598c1.6719-2.8867 3.8555-5.8516 6.5547-8.8906 2.6875-3.0391 9.0898-9.1953 19.195-18.465z"/><path d="m472.43 418.29c-7.4453.0-14.742 1.7852-21.883 5.3555l5.0156-28.379h60.406v-29.977l-84.684.003906-16.41 86.961 25.984 3.7617c7.293-8.1289 15.539-12.195 24.73-12.195 7.3711.0 13.355 2.5664 17.949 7.6914 4.5977 5.1289 6.8945 12.82 6.8945 23.078.0 10.941-2.3164 19.129-6.9531 24.562-4.6328 5.4336-10.297 8.1484-16.98 8.1484-5.8516.0-11.016-2.1094-15.5-6.3242-4.4805-4.2188-7.1797-9.9336-8.0938-17.152l-31.91 3.3047c1.8984 13.98 7.7109 25.113 17.438 33.395 9.7266 8.2812 22.301 12.422 37.727 12.422 19.301.0 34.383-7.3711 45.246-22.109 7.9805-10.789 11.969-23.062 11.969-36.812.0-16.488-4.9375-29.898-14.816-40.234-9.875-10.336-21.918-15.5-36.129-15.5z"/></g></svg>