<svg width="800" height="800" viewBox="0 0 48 48" xmlns="http://www.w3.org/2000/svg"><title>Facebook-color</title><desc>Created with Sketch.</desc><defs/><g id="Icons" stroke="none" stroke-width="1" fill="none" fill-rule="evenodd"><g id="Color-" transform="translate(-200.000000, -160.000000)" fill="#4460A0"><path d="M225.638355 208H202.649232C201.185673 208 2e2 206.813592 2e2 205.350603V162.649211C2e2 161.18585 201.185859 160 202.649232 160h42.701723C246.813955 160 248 161.18585 248 162.649211v42.701392C248 206.813778 246.813769 208 245.350955 208h-12.23165V189.411755h6.239216L240.292755 182.167586h-7.17345v-4.624945C233.119305 175.445287 233.701712 174.01601 236.70929 174.01601L240.545311 174.014333v-6.479242C239.881886 167.446808 237.604784 167.24957 234.955552 167.24957 229.424834 167.24957 225.638355 170.625526 225.638355 176.825209v5.342377h-6.255233v7.244169h6.255233V208z" id="Facebook"/></g></g></svg>