<svg fill="#000" width="800" height="800" viewBox="144 144 512 512" xmlns="http://www.w3.org/2000/svg"><path d="m4e2 606.56c31.473-.003906 62.527-7.2109 90.785-21.07 28.258-13.855 52.973-33.996 72.246-58.879.10938-.11719.26172-.17188.35938-.30078 21.453-27.566 35.484-60.168 40.75-94.699.03125-.20312.058594-.40625.085937-.60938.4375-2.9258.8125-5.8672 1.125-8.8203.078126-.71484.14844-1.4336.21875-2.1523.24219-2.5469.4375-5.1016.58594-7.668.050781-.83203.11328-1.6641.15234-2.5.15234-3.2734.25-6.5586.25-9.8594.0-3.8477-.125-7.668-.33594-11.465-.085937-1.5547-.23438-3.0938-.35547-4.6406-.16797-2.1836-.33984-4.3633-.57813-6.5234-.21094-1.9297-.47266-3.8516-.73437-5.7695-.23828-1.7266-.48828-3.4453-.76953-5.1602-.34375-2.1016-.71875-4.1914-1.125-6.2773-.29297-1.5-.61719-2.9883-.94531-4.4727-.47656-2.168-.95312-4.3359-1.5-6.4844-.35938-1.4141-.76953-2.8047-1.1562-4.2031-.85156-3.0742-1.7656-6.1328-2.7617-9.1719-.76953-2.3438-1.5352-4.6914-2.3867-7-.54297-1.4727-1.1523-2.9219-1.7305-4.3867-.83594-2.1172-1.6797-4.2266-2.5781-6.3086-.60547-1.3984-1.25-2.7852-1.8906-4.1719-.96875-2.1055-1.9727-4.1953-3.0078-6.2656-.38672-.77344-.72266-1.5625-1.1172-2.3281-.070313-.13281-.17969-.22656-.25781-.35156h.007813c-9.5352-18.332-21.75-35.141-36.25-49.863-.15234-.24609-.32813-.47266-.51953-.6875-1.1211-1.1289-2.3398-2.1367-3.4844-3.2383-1.9375-1.8633-3.8945-3.6992-5.9023-5.4844-1.6523-1.4727-3.3125-2.9258-5.0117-4.3438-2.9727-2.4805-6.0078-4.8789-9.1133-7.1992-1.457-1.082-2.9492-2.1133-4.4336-3.1562-2.8594-2.0156-5.7734-3.957-8.7383-5.832-.98047-.61719-1.9297-1.2695-2.918-1.8672-3.9258-2.3867-7.9648-4.5977-12.055-6.7227-.58984-.30469-1.1445-.66797-1.7383-.96875-.089844-.042969-.1875-.027344-.27734-.066406h-.003906c-13.859-7.0156-28.469-12.438-43.551-16.152-.039063-.011719-.070313-.042969-.11328-.050781-.47656-.11719-.95703-.19141-1.4336-.30469-3.1797-.75781-6.3828-1.4375-9.6172-2.0469-.83594-.15625-1.6758-.30469-2.5156-.44922-3.0508-.53516-6.1211-1-9.2148-1.3945-.93359-.12109-1.8633-.25-2.8008-.35547-3.0352-.34766-6.0898-.61719-9.1602-.82813-.91797-.066406-1.8359-.15625-2.7578-.21094-3.8789-.22266-7.7891-.35938-11.727-.35938-.64062.0-1.2695.019531-1.9023.042969l-1.2266.035156h-.007813c-11.539.17188-23.047 1.3086-34.398 3.4023-.03125.003906-.058594-.007813-.089844.0-.18359.035156-.36328.082031-.54688.11719-3.0156.56641-6.0078 1.1992-8.9727 1.8984-.45703.10547-.91797.20703-1.375.31641-3.0469.73828-6.0664 1.543-9.0586 2.4141-.33203.097657-.66797.1875-1 .28516-3.1758.94141-6.3164 1.957-9.4258 3.043-.14062.050781-.28516.09375-.42578.14453-23.094 8.1328-44.555 20.309-63.387 35.957-.73047.60547-1.4336 1.25-2.1562 1.8672-1.8125 1.5469-3.6211 3.0977-5.375 4.7031-1.2773 1.168-2.5078 2.3828-3.7539 3.582-1.1523 1.1094-2.3164 2.2031-3.4453 3.3359-1.4609 1.4688-2.875 2.9883-4.293 4.5039-.86328.92578-1.7383 1.8359-2.5859 2.7773-1.4922 1.6523-2.9375 3.3516-4.3789 5.0547-.72656.86328-1.4648 1.7188-2.1797 2.5898-1.4375 1.7578-2.8359 3.5547-4.2188 5.3633-.67969.89062-1.3594 1.7773-2.0234 2.6758-1.3281 1.8008-2.625 3.6289-3.8984 5.4766-.68359.99219-1.3594 1.9883-2.0273 2.9922-.60156.90625-1.2422 1.7812-1.8281 2.6992-.074219.11328-.078125.25391-.14062.375l-.003906-.003906c-26.691 41.805-37.441 91.824-30.273 140.9 7.168 49.082 31.77 93.938 69.305 126.36 37.535 32.426 85.492 50.25 135.09 50.207zm144.3-88.75c-5.207-1.7461-9.4492-5.5938-11.684-10.613-1.0703-1.793-1.5117-3.8867-1.2656-5.957 3.2344-6.4688 3.4922-23.102 3.4922-42.559.0-6.7148 6.8789-12.016 14.844-18.148 4.5508-3.3242 8.832-6.9961 12.812-10.984 2.8242-2.3438 4.0781-6.0898 3.2344-9.6602-1.6758-5.4414-8.2773-6.8672-15.258-8.3789-3.3438-.54297-6.5977-1.5195-9.6875-2.9062 1.0977-6.3906-.64453-12.945-4.7734-17.945-5.0273-5.5977-12.332-8.5938-19.844-8.1445-6.8867.0-14.145-2.5469-15.723-21.461-.12891-3.2539-1.2305-6.3945-3.1641-9.0195-1.9297-2.6211-4.6055-4.6055-7.6758-5.6953-4.6133-1.6562-7.9961-5.6445-8.875-10.465-2.6523-9.9531 3.5703-13.578 18.402-19.477 2.0469-.8125 4.0742-1.6172 6.0078-2.4609 6.2539-2.7109 24.09-2.9375 47.664-.61328h.003906v-.003906c6.6914.66797 13.43.67578 20.117.03125l3.2031-.3125c.15234.30469.31641.60156.46484.90625 1.1602 2.375 2.2461 4.7734 3.3047 7.1758.48828 1.1094.98828 2.2109 1.457 3.3281 1.1602 2.7695 2.2539 5.5547 3.2852 8.3594.6875 1.8828 1.3047 3.7969 1.9336 5.707.43359 1.3125.88672 2.6211 1.293 3.9414.63672 2.0664 1.2148 4.1602 1.7812 6.2578.32422 1.1992.65234 2.3984.95312 3.6016.53125 2.1211 1.0234 4.2578 1.4844 6.4062.26953 1.25.52344 2.5039.76172 3.7578.40625 2.0859.78906 4.1797 1.125 6.2891.23047 1.4492.42578 2.9062.625 4.3594.26562 1.9336.53125 3.8672.74219 5.8203.20312 1.9023.34375 3.8203.48828 5.7383.12109 1.5508.26953 3.0898.35547 4.6484.1875 3.5391.30078 7.0938.30078 10.668.0 3.1328-.089844 6.2383-.23828 9.3359-.035156.78906-.097656 1.5742-.14062 2.3633-.14453 2.4492-.32422 4.8906-.55859 7.3164-.0625.65625-.12891 1.3164-.19922 1.9727-.31641 2.9766-.68359 5.9414-1.1328 8.8789l-.003906.023437.003906-.003906c-4.9414 32.121-17.812 62.504-37.445 88.402-4.1641.35156-8.3516.19141-12.473-.48047zM523.355 261.8c-3.3906 5.75-9.4102 9.4492-16.07 9.875-5.5469.12891-11.07.73047-16.512 1.8008-4.6719 1.0469-9.4609 1.4531-14.238 1.2031-6.8359-1.3359-12.738-5.6094-16.141-11.688-.55078-1.3789-.44922-6.4297 12.395-23.562 5.0742-5.668 11.219-10.277 18.078-13.559.44141.23047.89453.44922 1.332.68359 2.8164 1.5 5.5898 3.0664 8.3203 4.7031 1.7188 1.0273 3.4062 2.1016 5.0898 3.1797 1.7422 1.1094 3.4766 2.2305 5.1797 3.3945 1.7891 1.2266 3.5586 2.4844 5.3008 3.7734 1.082.79297 2.1484 1.6055 3.2109 2.4219 4.7617 3.6484 9.3477 7.5039 13.758 11.559-6.8516 2.2344-8.8008 3.9609-9.7031 6.2148zm-105.35-27.391c-1.5586 1.6602-3.7812 2.5312-6.0547 2.3711-5.1445-1.7656-9.4102-5.4492-11.902-10.281-1.4766-2.2109-2.0156-9.5078.91406-22.961 1.4648.007813 2.918.070313 4.375.10938 1.7812.050781 3.5664.066406 5.3477.16406 1.0508.054688 2.0898.16797 3.1406.23828 2.3789.16797 4.7578.33594 7.1328.58984.51953.054687 1.0312.13672 1.5508.19922 2.8555.32812 5.7109.69531 8.5547 1.1523.34766.054687.6875.12891 1.0312.18359 2.9492.48828 5.8906 1.0273 8.8164 1.6484.097656.019531.19141.046875.28906.066406v.003906c-6.5117 9.8359-14.312 18.754-23.195 26.516zm-54.488 15.277c8.7383 10.613 13.879 23.562 11.008 27.715-3.7227 6.4766-10.352 10.746-17.789 11.461-3.8398-.52734-7.5508-1.75-10.957-3.5977-6.0234-2.7266-12.852-5.8242-16.852-.22266h.003906c-1.7578 3.2852-2.6602 6.9609-2.625 10.688-.44141 4.5703-1.1172 11.477-3.7656 12.359l.003906-.003906c-4.8789.39062-9.7891.11719-14.594-.80859-13.273-1.6992-28.328-3.6211-31.344 7.207-3.2227 11.605 6.4141 20.855 11.047 25.297h-.003907c.60547.54297 1.1836 1.1211 1.7305 1.7227.98047 1.2266 10.281 11.965 34.754 11.965 5.3125.0 9.7969-.36328 13.402-.65625 9.957-.80078 12.473-.79688 16.301 4.4961l.003907.003906c2.4062 4.5938 3.5742 9.7383 3.3828 14.922.47656 7.3438 1.125 17.406 10.773 18.543 6.2188-.046875 12.344-1.5273 17.895-4.3242 7.6367-3.0156 16.305-6.4336 22.102-3.7969 11.797 5.3633 23.75 17.289 22.043 25.84-.41016 2.0352-.71875 4.1523-1.0273 6.3008-1.6641 11.492-3.2578 18.727-14.594 22.504-19.941 6.6484-24.613 16.84-25.949 32.203-1.4609 11.293-8.7344 20.996-19.168 25.562-13.613 6.8086-14.699 16.359-15.957 27.418l-.22656 1.9883v.003906c-.49609 4.7969-.16797 9.6445.96484 14.336.85547 4.1328.94531 5.25-.097657 6.7539-1.5.69531-3.2148.77344-4.7734.21094-4.3555-.71094-7.9727-3.7461-9.4336-7.9102-.54688-6.332-.67578-12.695-.39062-19.047.25391-17.664.17578-29.703-3.0977-35.844v.003907c-2.1953-5.6562-3.793-11.527-4.7695-17.516-1.5508-10.039-4.5781-19.789-8.9883-28.941-4.4023-5.9219-9.9766-10.875-16.379-14.547-7.6211-5.1797-15.504-10.535-15.504-16.645.0-15.238.0-38.258-20.383-51.848-17.664-11.773-35.926-23.949-35.926-50.691.035157-3.1406.27734-6.2734.73438-9.3828.47656-.73828.9375-1.4883 1.4219-2.2188.56641-.85156 1.1523-1.6914 1.7344-2.5312 1.2422-1.8008 2.5-3.5859 3.8008-5.3438.57031-.76953 1.1602-1.5273 1.7383-2.2891 1.3359-1.7539 2.6914-3.4922 4.0859-5.1953.63672-.78125 1.293-1.543 1.9414-2.3125 1.3672-1.6211 2.7461-3.2305 4.1641-4.8047.78516-.86719 1.5859-1.7148 2.3867-2.5703 1.3164-1.4141 2.6406-2.8203 4-4.1953 1.0117-1.0195 2.043-2.0117 3.0742-3.0078 1.1875-1.1484 2.3711-2.3008 3.5859-3.418 1.3125-1.207 2.6523-2.375 3.9961-3.5469.98047-.85547 1.9492-1.7188 2.9453-2.5547 1.6719-1.3984 3.3789-2.7539 5.0938-4.0977.71094-.55469 1.4102-1.125 2.1289-1.6719 2.0586-1.5664 4.1484-3.0859 6.2695-4.5625.41797-.29297.82422-.59375 1.2422-.88672 2.4297-1.6719 4.8945-3.293 7.3984-4.8555.13672-.085937.26953-.17578.40625-.26172v.011718c16.25-10.113 33.895-17.789 52.371-22.789l.10156-.027344c3.0117-.8125 6.0469-1.5508 9.1055-2.2148l.24609-.054687c-.13281 1.2109-.34375 2.5234-.63281 3.9414-.39844 2.6562-3.6133 26.254 5.8398 37.734zm-138.66 61.43c3.5117 26.461 23.484 39.863 40.176 50.992 15.539 10.355 15.539 28.582 15.539 43.223.0 11.445 10.582 18.637 19.918 24.98h-.003906c5.1367 2.9336 9.6836 6.8008 13.402 11.398 3.7773 8.2109 6.3906 16.91 7.7695 25.844 1.0898 6.9297 3.0156 13.703 5.7422 20.168 2.2969 4.3086 2.0664 20.344 1.9102 30.953-.33203 6.9531-.15625 13.922.52344 20.848 1.3828 4.75 4.2578 8.9297 8.1953 11.926 3.9375 2.9922 8.7344 4.6445 13.68 4.707 4.1055.24609 8.0625-1.5703 10.551-4.8438 2.7227-4.3438 3.3477-9.6836 1.6914-14.539-.92187-3.6328-1.1992-7.3984-.82812-11.129l.23047-2.0234c1.1875-10.422 1.7227-15.18 10.449-19.543l.003906.003906c6.7266-2.9375 12.555-7.6016 16.895-13.52 4.3359-5.9219 7.0312-12.887 7.8047-20.184 1.082-12.457 3.9766-18.48 19.098-23.523v.003906c17.805-5.9336 19.867-20.203 21.379-30.621.28516-1.9648.5625-3.9023.93359-5.7656 2.9023-14.52-12.133-29.895-27.75-36.988-9.6836-4.4141-20.469-.15234-29.973 3.5977-4.1641 2.1016-8.7109 3.3281-13.367 3.6055-1.1016-2.9062-1.6289-5.9961-1.543-9.1016.16016-7.0859-1.668-14.078-5.2773-20.176-7.293-10.09-15.23-9.4648-25.285-8.6328-3.5977.28906-7.6797.62109-12.586.62109-19.785.0-26.824-8.1016-26.895-8.1875l.003906-.003907c-.82031-.94922-1.6914-1.8477-2.6172-2.6953-4.8008-4.6094-9.8008-9.9727-8.3008-15.371 1.7031-2.25 14.766-.58984 20.348.12891h.003906c6.2656 1.3594 12.738 1.4883 19.055.37891 8.8555-2.9531 9.8633-13.352 10.602-20.945.12891-1.3086.29688-3.0391.47656-4.2969 1.4258.5 3.3711 1.3828 4.8125 2.0352v.003906c4.6758 2.5234 9.8203 4.0547 15.113 4.4961 10.781-.59375 20.559-6.5195 26.074-15.805 7.6836-11.098-3.625-30.277-11.512-39.855-5.5898-6.7852-4.4805-24.254-3.6992-29.57h-.003906c.51562-2.5117.80859-5.0664.87109-7.6328 7.3398-1.1953 14.738-1.9727 22.164-2.3281-2.7383 13.672-2.3984 23.191 1.0352 28.336 5.9023 8.8711 12.289 13.809 18.977 14.688.67188.085937 1.3516.13281 2.0312.13281 4.4766-.085938 8.7578-1.8477 12-4.9375h.003906c7.3164-6.4609 21.645-21.238 26.59-31.629h.003906c9.8086 2.6602 19.395 6.082 28.668 10.234-5.7969 3.3242-10.949 7.6641-15.207 12.812-10.582 14.109-16.961 25.18-13.691 33.348 4.7656 9.4648 13.727 16.113 24.168 17.934 1.3555.17969 2.7227.26562 4.0898.26172 4.4258-.14063 8.8281-.64844 13.168-1.5195 4.8828-.97266 9.8398-1.5273 14.82-1.6602 10.32-.39062 19.715-6.0664 24.859-15.023 2.9531-1.293 6.0195-2.3164 9.1562-3.0547 11.52 11.934 21.492 25.27 29.68 39.695-5.7148.5-11.465.47656-17.18-.078126-18.387-1.8164-42.445-3.0508-52.672 1.4023-1.8398.80078-3.7695 1.5664-5.7109 2.3359-12.516 4.9805-29.656 11.793-24.414 31.438v.003906c1.5977 7.6289 6.8906 13.961 14.113 16.887 3.7031 1.8438 4.9531 2.4648 5.293 6.5352 1.6992 20.375 10.363 30.699 25.762 30.699h.003906c4.5273-.35156 8.9805 1.3281 12.152 4.5781 2.3008 2.9023 3.1953 6.6758 2.4375 10.301-1.625 9.7305 9.9297 12.23 17.574 13.883 1.8828.41016 4.6484 1.0078 6.5078 1.6172h.003906c-3.543 3.457-7.3203 6.6562-11.312 9.582-9.2266 7.1055-18.77 14.453-18.77 26.129.0 10.77.0 33.184-2.4297 38.047-1.8398 4.7305-1.4648 10.035 1.0234 14.461 3.4648 7.8906 10.203 13.875 18.449 16.383 2.2148.49219 4.4766.76563 6.7461.80859-31.34 36.34-74.902 59.941-122.46 66.352-47.559 6.4102-95.816-4.8164-135.66-31.559-39.844-26.742-68.516-67.148-80.602-113.59-12.082-46.441-6.7422-95.699 15.012-138.47z"/></svg>