<svg fill="#000" width="800" height="800" viewBox="144 144 512 512" xmlns="http://www.w3.org/2000/svg"><path d="m588.93 234.69H211.07c-6.2656.0-12.27 2.4883-16.699 6.9141-4.4297 4.4297-6.918 10.438-6.918 16.699v283.39c0 6.2617 2.4883 12.27 6.918 16.699 4.4297 4.4297 10.434 6.918 16.699 6.918h377.86c6.2656.0 12.273-2.4883 16.699-6.918 4.4297-4.4297 6.918-10.438 6.918-16.699v-283.39c0-6.2617-2.4883-12.27-6.918-16.699-4.4258-4.4258-10.434-6.9141-16.699-6.9141zm-23.617 47.23v34.164l-165.31 86.277-165.31-85.648V281.92zm-330.62 236.16.003906-148.15 153.98 79.98c6.8594 3.5586 15.023 3.5586 21.883.0l154.77-80.609v148.78z"/></svg>