<svg fill="#000" width="800" height="800" viewBox="144 144 512 512" xmlns="http://www.w3.org/2000/svg"><g><path d="m261.45 551.14h277.09c6.957.0 12.594-5.6367 12.594-12.594v-277.09c0-6.957-5.6367-12.594-12.594-12.594H261.45c-6.957.0-12.594 5.6367-12.594 12.594v277.09c0 6.957 5.6367 12.594 12.594 12.594zm12.598-277.09h251.91v251.91l-251.91-.003906z"/><path d="m479.26 328.11-117.05 117.05-41.473-41.473c-4.9219-4.9219-12.891-4.9219-17.809.0-4.9219 4.918-4.9219 12.891.0 17.809l50.383 50.383c2.457 2.4609 5.6758 3.6914 8.8984 3.6914 3.2227.0 6.4453-1.2305 8.9062-3.6875l125.95-125.95c4.9219-4.918 4.9219-12.891.0-17.809-4.9219-4.9219-12.891-4.9219-17.812-.007813z"/></g></svg>