<svg width="800" height="800" viewBox="0 0 32 32" fill="none" xmlns="http://www.w3.org/2000/svg"><path fill-rule="evenodd" clip-rule="evenodd" d="M16 31c7.732.0 14-6.268 14-14C30 9.26801 23.732 3 16 3 8.26801 3 2 9.26801 2 17c0 2.5109.661 4.8674 1.81847 6.905L2 31l7.31486-1.6962C11.3014 30.3854 13.5789 31 16 31zm0-2.1538c6.5425.0 11.8462-5.3037 11.8462-11.8462.0-6.5424-5.3037-11.84615-11.8462-11.84615C9.45755 5.15385 4.15385 10.4576 4.15385 17 4.15385 19.5261 4.9445 21.8675 6.29184 23.7902l-1.06107 3.979 4.04916-1.0123C11.1894 28.0746 13.5046 28.8462 16 28.8462z" fill="#BFC8D0"/><path d="M28 16c0 6.6274-5.3726 12-12 12C13.4722 28 11.1269 27.2184 9.19266 25.8837L5.09091 26.9091l1.07485-4.0307C4.80092 20.9307 4 18.5589 4 16 4 9.37258 9.37258 4 16 4c6.6274.0 12 5.37258 12 12z" fill="url(#paint0_linear_87_7264)"/><path fill-rule="evenodd" clip-rule="evenodd" d="M16 30c7.732.0 14-6.268 14-14C30 8.26801 23.732 2 16 2 8.26801 2 2 8.26801 2 16c0 2.5109.661 4.8674 1.81847 6.905L2 30l7.31486-1.6962C11.3014 29.3854 13.5789 30 16 30zm0-2.1538c6.5425.0 11.8462-5.3037 11.8462-11.8462C27.8462 9.45755 22.5425 4.15385 16 4.15385 9.45755 4.15385 4.15385 9.45755 4.15385 16 4.15385 18.5261 4.9445 20.8675 6.29184 22.7902l-1.06107 3.979 4.04916-1.0123C11.1894 27.0746 13.5046 27.8462 16 27.8462z" fill="#fff"/><path d="M12.5 9.49989C12.1672 8.83131 11.6565 8.8905 11.1407 8.8905 10.2188 8.8905 8.78125 9.99478 8.78125 12.05c0 1.6843.7422 3.528 3.24315 6.2861 2.4136 2.6618 5.585 4.0387 8.2178 3.9918C22.875 22.2811 23.4167 20.0154 23.4167 19.2503 23.4167 18.9112 23.2062 18.742 23.0613 18.696 22.1641 18.2654 20.5093 17.4631 20.1328 17.3124S19.5597 17.3656 19.4375 17.4765c-.3414.325299999999999-1.0182 1.2843-1.25 1.5C17.9558 19.1922 17.6103 19.083 17.4665 19.0015 16.9374 18.7892 15.5029 18.1511 14.3595 17.0426c-1.4142-1.3708-1.4972-1.8425-1.7636-2.2623C12.3828 14.4444 12.5392 14.2384 12.6172 14.1483 12.9219 13.7968 13.3426 13.254 13.5313 12.9843 13.7199 12.7145 13.5702 12.305 13.4803 12.05c-.3865-1.097-.714-2.0153-.9803-2.55011z" fill="#fff"/><defs><linearGradient id="paint0_linear_87_7264" x1="26.5" y1="7" x2="4" y2="28" gradientUnits="userSpaceOnUse"><stop stop-color="#5BD066"/><stop offset="1" stop-color="#27B43E"/></linearGradient></defs></svg>