<svg fill="#000" width="800" height="800" viewBox="144 144 512 512" xmlns="http://www.w3.org/2000/svg"><path d="m415.17 255.12c2.7734-2.7578 7.2734-2.7578 10.047.0l140.64 139.78c1.3125 1.3047 2.0039 2.9961 2.0742 4.707v.20703c.078124 1.9023-.61328 3.8281-2.0742 5.2773l-140.64 139.78c-2.7734 2.7578-7.2734 2.7578-10.047.0l-20.09-19.969c-2.7734-2.7578-2.7734-7.2266.0-9.9844l94.504-93.93h-250.53c-3.8633.0-6.9961-3.1328-6.9961-7v-27.988c0-3.8633 3.1328-6.9961 6.9961-6.9961h250.53l-94.504-93.934c-2.6289-2.6133-2.7656-6.7617-.41406-9.5352l.41406-.44922z" fill-rule="evenodd"/></svg>