<svg fill="#000" width="800" height="800" viewBox="144 144 512 512" xmlns="http://www.w3.org/2000/svg"><path d="m4e2 173.79c-125.45.0-226.71 101.27-226.71 226.71.0 125.45 101.27 226.71 226.71 226.71S626.71 525.94 626.71 400.5C626.706094 275.05 525.44 173.79 4e2 173.79zm94.715 281.63c8.5664 8.5664 8.5664 22.168.0 30.73l-9.0703 9.0703c-8.5664 8.5664-22.168 8.5664-30.73.0l-54.914-54.41-54.918 54.41c-8.5664 8.5664-22.168 8.5664-30.73.0l-9.5742-9.5742c-8.5664-8.5664-8.5664-22.168.0-30.73l54.918-54.41-54.414-54.918c-8.5664-8.5664-8.5664-22.168.0-30.73l9.5742-9.5742c8.5664-8.5664 22.168-8.5664 30.73.0l54.414 54.918 54.914-54.914c8.5664-8.5664 22.168-8.5664 30.73.0l9.5742 9.5742c8.5664 8.5664 8.5664 22.168.0 30.73l-54.914 54.914z"/></svg>