<svg width="800" height="800" viewBox="-7.06 0 72 72" xmlns="http://www.w3.org/2000/svg"><g id="Layer_10" data-name="Layer 10" transform="translate(-411.059 -251.001)"><g id="Group_7" data-name="Group 7"><path id="Path_16" data-name="Path 16" d="M442.485 265.235v-2.447h4.475a2.486 2.486.0 002.486-2.487v-6.814A2.486 2.486.0 00446.96 251H433.039a2.486 2.486.0 00-2.486 2.486V260.3a2.486 2.486.0 002.486 2.487h4.475v2.447a28.972 28.972.0 00-26.454 28.817v.014a28.941 28.941.0 1031.426-28.831zm-6.96-9.262h8.949v1.842h-8.949zm6.961 61.926V315.18a2.486 2.486.0 00-4.972.0v2.72a24.013 24.013.0 01-21.354-21.355h2.719a2.486 2.486.0 000-4.972H416.16a24.012 24.012.0 0121.354-21.351v2.718a2.485 2.485.0 104.971.0v-2.718a24.011 24.011.0 0121.354 21.352H461.12a2.486 2.486.0 000 4.972h2.719A24.011 24.011.0 01442.486 317.9z" fill="#603813"/><path id="Path_17" data-name="Path 17" d="M450.783 279.909l-15.371 8.329a2.486 2.486.0 00-.995.989l-8.564 15.6a2.487 2.487.0 003.376 3.376l15.6-8.566a2.467 2.467.0 00.989-1l8.331-15.366a2.485 2.485.0 00-3.37-3.37zM441.8 295.633l-7.481 4.107 4.106-7.479 7.369-3.993z" fill="#603813"/></g></g></svg>