<svg width="800" height="800" viewBox="144 144 512 512" xmlns="http://www.w3.org/2000/svg"><defs><clipPath id="a"><path d="m148.09 148.09H651.9V651.9H148.09z"/></clipPath></defs><g clip-path="url(#a)"><path d="m4e2 148.09c139.11.0 251.9 112.79 251.9 251.9S539.11 651.9 4e2 651.9 148.09 539.1 148.09 399.99s112.8-251.9 251.91-251.9zm0 21.594c-127.21.0-230.31 103.09-230.31 230.31.0 127.21 103.1 230.31 230.31 230.31s230.31-103.1 230.31-230.31S527.22 169.684 4e2 169.684z"/></g><path d="m258.65 398.77 106.06 94.348 174.2-217.41 16.777 13.484-188.38 235.11-123-109.42z"/></svg>