<svg fill="#000" width="800" height="800" viewBox="144 144 512 512" xmlns="http://www.w3.org/2000/svg"><path d="m588.46 239.9h-84.227s-38.91-39.812-47.613-39.812H343.36c-8.7109.0-47.613 39.812-47.613 39.812H211.54c-28.957.0-52.473 21.039-52.473 46.98v266.04c0 25.941 23.512 46.98 52.473 46.98h376.92c28.984.0 52.465-21.039 52.465-46.98V286.88c0-25.941-23.484-46.98-52.469-46.98zM399.99 554.85c-74.086.0-134.36-60.277-134.36-134.36.0-74.102 60.277-134.38 134.36-134.38s134.36 60.277 134.36 134.38c0 74.082-60.277 134.36-134.36 134.36z"/></svg>