<svg width="800" height="800" viewBox="144 144 512 512" xmlns="http://www.w3.org/2000/svg"><path d="m4e2 593.12c-2.0977.0-3.1484.0-5.2461-1.0508-9.4492-5.2461-233.02-127-233.02-247.7.0-75.57 61.926-137.5 137.5-137.5 38.836.0 75.57 15.742 100.76 44.082 26.238-28.34 61.926-44.082 100.76-44.082 75.57.0 137.5 61.926 137.5 137.5.0 120.7-223.57 242.46-233.01 246.66-2.0938 1.0469-3.1445 2.0977-5.2422 2.0977zM299.24 227.86c-64.027.0-116.51 52.48-116.51 116.51.0 98.664 184.73 207.82 217.27 225.66 32.539-18.895 217.27-127 217.27-225.66.0-64.027-52.48-116.51-116.51-116.51-36.734.0-70.324 16.793-92.363 46.184-4.1992 5.2461-12.594 5.2461-16.793.0-22.047-29.391-55.633-46.184-92.367-46.184z" fill="#221f20"/></svg>