<svg fill="#000" width="800" height="800" viewBox="144 144 512 512" xmlns="http://www.w3.org/2000/svg"><path d="m507.23 615.78c-8.2656-.019532-16.402-2.0547-23.707-5.9258l-83.527-43.891-83.543 43.922-.003906-.003906c-11.246 5.9102-24.301 7.3945-36.59 4.1562-12.289-3.2383-22.918-10.965-29.793-21.652s-9.4961-23.559-7.3477-36.086l15.957-93.027-67.613-65.848c-9.1055-8.8711-14.555-20.828-15.277-33.52-.71875-12.688 3.3398-25.188 11.379-35.031 8.0391-9.8477 19.473-16.32 32.051-18.152l93.352-13.559 41.785-84.641.003906.003907c5.6211-11.395 15.309-20.27 27.152-24.875 11.844-4.6055 24.98-4.6055 36.824.0s21.531 13.48 27.152 24.875l41.938 84.637 93.352 13.559c12.578 1.832 24.012 8.3047 32.051 18.152 8.0391 9.8438 12.098 22.344 11.379 35.031-.72266 12.691-6.1719 24.648-15.277 33.52l-67.598 65.867 15.957 93.027v-.003906c2.5156 14.758-1.5938 29.879-11.234 41.332-9.6406 11.457-23.832 18.09-38.805 18.133zM4e2 534.413c2.4062.0 4.7734.58594 6.9023 1.707l90.391 47.551c4.6914 2.457 10.133 3.0703 15.254 1.7188 5.125-1.3516 9.5547-4.5703 12.422-9.0234s3.9609-9.8203 3.0703-15.043l-17.277-100.76c-.82422-4.8047.76562-9.707 4.2539-13.113l73.172-71.258c3.793-3.6953 6.0664-8.6797 6.3672-13.969.30078-5.2891-1.3906-10.496-4.7422-14.602-3.3516-4.1016-8.1211-6.7969-13.363-7.5586l-101.1-14.699c-4.8281-.69922-9-3.7305-11.156-8.1055l-45.195-91.617c-2.3477-4.75-6.3867-8.4453-11.324-10.363-4.9336-1.918-10.41-1.918-15.348.0-4.9375 1.918-8.9766 5.6133-11.324 10.363l-45.223 91.621v-.003906c-2.1602 4.375-6.332 7.4062-11.156 8.1055l-101.1 14.699h-.003906c-5.2383.76562-10 3.4688-13.348 7.5703-3.3438 4.1055-5.0312 9.3125-4.7266 14.598.30078 5.2852 2.5742 10.266 6.3711 13.961l73.156 71.32v-.003906c3.4883 3.4062 5.0781 8.3086 4.25 13.113l-17.277 100.76c-.89062 5.2188.20312 10.582 3.0664 15.035 2.8633 4.4492 7.2891 7.6719 12.406 9.0273 5.1133 1.3555 10.555.75 15.246-1.6992l90.391-47.551c2.1328-1.1523 4.5195-1.7656 6.9492-1.7812z"/></svg>