<svg fill="#000" width="800" height="800" viewBox="144 144 512 512" xmlns="http://www.w3.org/2000/svg"><g><path d="m368.51 478.72h165.31c4.3438.0 7.8711-3.5273 7.8711-7.8711s-3.5273-7.8711-7.8711-7.8711H368.51c-4.3438.0-7.8711 3.5273-7.8711 7.8711-.003906 4.3438 3.5234 7.8711 7.8711 7.8711z"/><path d="m368.51 337.02h165.31c4.3438.0 7.8711-3.5273 7.8711-7.8711s-3.5273-7.8711-7.8711-7.8711l-165.31-.003906c-4.3438.0-7.8711 3.5273-7.8711 7.8711-.003906 4.3477 3.5234 7.875 7.8711 7.875z"/><path d="m220.86 462.57 12.004-12.004 50.414 50.414c5.9492 5.9414 13.855 9.2227 22.254 9.2227h251.91c26.047.0 47.23-21.184 47.23-47.23v-125.95c0-26.047-21.184-47.23-47.23-47.23l-251.91-.003907c-8.3984.0-16.305 3.2812-22.254 9.2344l-78.719 78.719c-5.9531 5.9531-9.2383 13.855-9.2383 22.258.0 8.3984 3.2812 16.305 9.2344 22.254l17.176 17.176-12.004 12.004s-.007813.0-.007813.007812c-5.2031 5.2031-8.0703 12.121-8.0703 19.484.0 7.3594 2.8672 14.273 8.0625 19.477 4.6055 4.6055 4.6055 12.098.0 16.703-4.4648 4.457-12.234 4.4648-16.703.0-3.0781-3.0781-8.0547-3.0781-11.133.0s-3.0781 8.0547.0 11.133c5.3672 5.375 12.43 8.0547 19.484 8.0547 7.0547.0 14.113-2.6836 19.492-8.0547 10.738-10.746 10.738-28.223.0-38.965-2.2266-2.2266-3.457-5.1953-3.457-8.3438.0-3.1484 1.2266-6.1172 3.457-8.3438.0-.003907.0-.011719.007812-.011719zm-5.1719-51.453c-2.9844-2.9766-4.6211-6.9258-4.6211-11.121s1.6367-8.1484 4.6211-11.125l78.719-78.719c2.9766-2.9844 6.9297-4.6211 11.125-4.6211h251.91c17.367.0 31.488 14.121 31.488 31.488v125.95c0 17.367-14.121 31.488-31.488 31.488l-251.91-.003906c-4.1953.0-8.1484-1.6367-11.125-4.6211l-50.414-50.414 12.406-12.406c4.6875 2.7734 10.078 4.4688 15.895 4.4688 17.367.0 31.488-14.121 31.488-31.488s-14.121-31.488-31.488-31.488-31.488 14.121-31.488 31.488c0 5.8242 1.6914 11.211 4.4648 15.895l-12.406 12.406zm40.863-11.121c0-8.6836 7.0625-15.742 15.742-15.742 8.6836.0 15.742 7.0625 15.742 15.742.0 8.6836-7.0625 15.742-15.742 15.742-1.4023.0-2.7305-.24219-4.0234-.58984l9.5898-9.5898c3.0781-3.0781 3.0781-8.0547.0-11.133-3.0781-3.0781-8.0547-3.0781-11.133.0l-9.5898 9.5898c-.34375-1.2891-.58594-2.6211-.58594-4.0195z"/></g></svg>