<svg width="800" height="800" viewBox="0 -23.5 256 256" xmlns="http://www.w3.org/2000/svg" preserveAspectRatio="xMidYMid"><g><path d="M256 25.4500259C246.580841 29.6272672 236.458451 32.4504868 225.834156 33.7202333c10.844347-6.500428 19.171674-16.7932404 23.093281-29.05715645C238.779765 10.6812633 227.539325 15.0523376 215.57599 17.408298 205.994835 7.2006971 192.34506.822 177.239197.822c-29.006592.0-52.523121 23.5155931-52.523121 52.5203116C124.716076 57.4586875 125.181462 61.4673784 126.076652 65.3112644 82.4258385 63.1210453 43.7257252 42.211429 17.821398 10.4359288c-4.5208969 7.757065-7.110955 16.7791946-7.110955 26.4043601.0 18.2212371 9.2730824 34.2972018 23.3657705 43.7154248C25.4660961 80.2832239 17.3681846 77.9207088 10.2862577 73.9869292 10.2825122 74.2060448 10.2825122 74.4260967 10.2825122 74.647085c0 25.447368 18.1041881 46.675358 42.1310508 51.499645C48.0059695 127.347184 43.3661509 127.988612 38.5755734 127.988612 35.1914554 127.988612 31.9009766 127.659938 28.694773 127.046602c6.6830243 20.866543 26.0794323 36.051063 49.0622188 36.475248-17.9749661 14.086133-40.6215882 22.482754-65.2280771 22.482754C8.28987161 186.004604 4.10888474 185.75646.0 185.271409c23.2431033 14.90173 50.8507261 23.596123 80.5109185 23.596123 96.6056105.0 149.4330585-80.03055 149.4330585-149.4349318C229.943977 57.1552968 229.893412 54.8901664 229.792282 52.6381454 240.053257 45.2331635 248.958338 35.9825545 256 25.4500259" fill="#55acee"/></g></svg>