<svg fill="#000" width="800" height="800" viewBox="144 144 512 512" xmlns="http://www.w3.org/2000/svg"><g><path d="m198.48 584.73 76.133-90.688c-20.152-29.668-30.789-64.375-30.789-100.2.55859-98.523 80.605-178.57 179.13-178.57 98.523.0 178.57 80.047 178.57 178.57s-80.051 178.57-178.57 178.57c-31.348.0-62.137-8.3984-89.008-24.07zm224.47-358.27c-92.363.0-167.38 75.012-167.38 167.38.0 35.266 10.637 68.855 31.348 97.402l2.8008 3.3594-59.898 69.977 105.24-27.988 2.2383 1.1211c25.75 15.113 55.418 23.512 85.648 23.512 92.367-.003906 167.38-75.016 167.38-167.38.0-92.363-75.012-167.38-167.38-167.38z"/><path d="m408.96 478.93c0-11.754 7.8359-20.152 19.031-20.152 11.754.0 19.031 8.3984 19.031 20.152.0 11.195-7.2773 20.152-19.031 20.152-11.195-.5625-19.031-8.957-19.031-20.152zm7.8359-45.902-4.4766-153.94h30.789l-3.9219 153.94z"/></g></svg>